:SAMPLES-PER-SECOND 30
:FULLY-SPECIFIED
:DEGREES
168
root  -38.7752 39.5767 0.585509 -169.417 87.0399 -164.649
RightUpLeg  -2.72509 -9.26337 1.30563
RightLeg  20.1545 -1.28651 0.599646
RightFoot  -10.5613 -0.0331318 -4.53234
RightToes  5.47152e-009 0 -3.6325e-017
Spine  8.12689 -0.794057 12.3888
Spine1  12.8073 1.18535 -1.59557
HEad  -8.17939 -5.38293 -2.35526
LeftShoulder1  -0.128392 3.8824 -27.7487
LeftArm  -16.3446 13.9724 -39.5504
LeftForeArm  87.4439 -78.6571 -105.911
LeftHand  -0.0102365 4.66546 -4.10761
RightShoulder  -0.545246 -5.13051 26.7374
RightArm  -14.6782 -8.38977 39.9467
RightForeArm  97.1818 75.1713 129.726
RightHand  -0.0441806 -4.55462 -2.9988
LeftUpLeg  -17.4202 -4.15542 4.61538
LeftLeg  50.6559 -1.27172 -1.22164
LeftFoot  -1.79573 0.429754 -5.04524
LeftToes  -4.29285e-010 1.49941e-010 2.15559e-012
169
root  -37.9021 39.6551 0.691955 -179.409 87.3775 -174.537
RightUpLeg  -0.0234626 -9.15295 0.548124
RightLeg  18.1709 -1.05339 0.911594
RightFoot  -11.799 -0.0916932 -2.40115
RightToes  5.47152e-009 0 -3.6325e-017
Spine  7.92762 -0.715625 12.0211
Spine1  12.5565 1.27238 -2.39961
HEad  -8.40021 -4.77791 -2.48508
LeftShoulder1  -0.139012 3.91607 -27.5315
LeftArm  -16.3721 13.47 -39.6013
LeftForeArm  86.8829 -78.6468 -105.763
LeftHand  -0.00927237 4.79452 -4.04912
RightShoulder  -0.528775 -5.08688 26.6055
RightArm  -14.6962 -8.3173 40.1625
RightForeArm  97.7499 75.1485 129.921
RightHand  -0.0314331 -5.04854 -2.07409
LeftUpLeg  -18.049 -3.45259 3.54794
LeftLeg  43.3362 -1.34583 -0.966949
LeftFoot  -2.62395 0.479999 -6.08054
LeftToes  -4.29285e-010 1.49941e-010 2.15559e-012
170
root  -37.0013 39.769 0.8177 -179.661 88.3617 -175.098
RightUpLeg  1.72743 -8.82908 0.573574
RightLeg  16.701 -0.385611 1.21909
RightFoot  -11.787 -0.098582 -4.92269
RightToes  5.47152e-009 0 -3.6325e-017
Spine  7.13181 -0.196669 11.9839
Spine1  12.6669 1.74878 -3.04865
HEad  -8.82965 -4.29075 -2.42912
LeftShoulder1  -0.114887 3.84855 -27.133
LeftArm  -16.3062 13.233 -39.7774
LeftForeArm  86.1759 -78.6716 -105.19
LeftHand  -0.00687781 4.68068 -3.61722
RightShoulder  -0.502837 -5.01133 26.5281
RightArm  -14.7322 -8.14489 40.3131
RightForeArm  97.676 75.2716 129.425
RightHand  -0.0344535 -4.81475 -1.77429
LeftUpLeg  -18.1402 -1.39378 2.99928
LeftLeg  33.961 -1.89796 -1.02517
LeftFoot  -2.02207 0.518995 -6.20664
LeftToes  -4.29285e-010 1.49941e-010 2.15559e-012
171
root  -36.1062 39.8239 0.94162 173.987 88.5976 178.207
RightUpLeg  3.97404 -8.51941 0.443981
RightLeg  14.4586 -0.401415 1.29262
RightFoot  -12.2191 -0.117028 -4.50673
RightToes  5.47152e-009 0 -3.6325e-017
Spine  6.0343 0.146727 11.0774
Spine1  13.2155 1.768 -2.89248
HEad  -9.01963 -3.99469 -2.52362
LeftShoulder1  -0.0799492 3.74508 -26.9434
LeftArm  -16.3878 12.6762 -39.9854
LeftForeArm  85.3978 -78.7065 -104.458
LeftHand  -0.0219946 5.10469 -3.85302
RightShoulder  -0.453433 -4.86518 26.4226
RightArm  -14.8036 -8.21777 40.3531
RightForeArm  97.6674 75.1629 129.849
RightHand  -0.0416608 -4.47683 -2.36902
LeftUpLeg  -17.6382 0.164636 2.12636
LeftLeg  23.4033 -2.99846 -1.07222
LeftFoot  -1.38266 0.626125 -7.09043
LeftToes  -4.29285e-010 1.49941e-010 2.15559e-012
172
root  -35.1975 39.8633 1.05054 173.876 88.4944 177.486
RightUpLeg  6.2109 -8.22285 0.534093
RightLeg  11.6801 -0.704272 1.31693
RightFoot  -12.4556 -0.124576 -4.13729
RightToes  5.47152e-009 0 -3.6325e-017
Spine  4.55759 0.422075 10.0315
Spine1  13.9223 1.64673 -2.49292
HEad  -9.09066 -3.67168 -2.46267
LeftShoulder1  -0.0597115 3.685 -26.7947
LeftArm  -16.1826 11.907 -40.1272
LeftForeArm  83.9876 -78.7793 -102.974
LeftHand  -0.00214092 4.5763 -3.72804
RightShoulder  -0.465063 -4.90358 26.3534
RightArm  -15.1154 -8.49467 40.1719
RightForeArm  98.7716 75.0706 130.413
RightHand  -0.0340707 -4.56237 -1.39929
LeftUpLeg  -16.9689 1.50515 1.27711
LeftLeg  12.3103 -4.35029 -0.785377
LeftFoot  -0.963679 0.66065 -7.21829
LeftToes  -4.29285e-010 1.49941e-010 2.15559e-012
173
root  -34.2247 39.8615 1.12878 172.722 88.2677 175.896
RightUpLeg  8.78441 -8.07847 0.542877
RightLeg  8.85611 -0.909079 1.27506
RightFoot  -12.778 -0.133348 -3.77534
RightToes  5.47152e-009 0 -3.6325e-017
Spine  3.15463 0.50431 8.84032
Spine1  14.4144 1.4174 -2.13812
HEad  -9.0153 -3.67267 -1.8282
LeftShoulder1  -0.0735865 3.72915 -26.3876
LeftArm  -15.5549 11.3271 -40.2235
LeftForeArm  83.2656 -78.7914 -102.473
LeftHand  -0.0237612 5.10363 -2.87511
RightShoulder  -0.45843 -4.88557 26.2839
RightArm  -14.9546 -8.50737 40.0325
RightForeArm  96.8699 75.1957 129.571
RightHand  -0.0430366 -4.14064 -2.06145
LeftUpLeg  -16.01 2.28981 0.484756
LeftLeg  2.35463 -3.80134 -0.296913
LeftFoot  0.150842 0.753708 -7.44555
LeftToes  -4.29285e-010 1.49941e-010 2.15559e-012
174
root  -33.2122 39.6993 1.20464 -175.424 88.22 -172.361
RightUpLeg  10.9608 -7.82978 1.02249
RightLeg  7.73592 -1.14057 1.11086
RightFoot  -14.0349 -0.1741 -3.35782
RightToes  5.47152e-009 0 -3.6325e-017
Spine  2.42546 0.673263 8.27579
Spine1  14.4352 1.45717 -1.97081
HEad  -8.25132 -3.4236 -1.90772
LeftShoulder1  -0.0518702 3.66497 -25.9805
LeftArm  -14.9359 10.5223 -40.1723
LeftForeArm  83.2888 -78.8125 -102.22
LeftHand  -0.0388392 5.56402 -3.27843
RightShoulder  -0.511794 -5.02912 26.7396
RightArm  -14.9872 -8.87108 39.4961
RightForeArm  96.837 75.2363 129.405
RightHand  -0.042624 -3.85385 -1.76239
LeftUpLeg  -15.46 2.84668 0.529638
LeftLeg  -3.65414 -0.996666 -0.877464
LeftFoot  2.02835 1.01586 -8.77811
LeftToes  -4.29285e-010 1.49941e-010 2.15559e-012
175
root  -32.1744 39.4409 1.22455 -158.613 88.1689 -155.631
RightUpLeg  12.5228 -7.68937 1.54493
RightLeg  8.0299 -1.19218 1.0288
RightFoot  -15.8596 -0.225377 -3.01743
RightToes  5.47152e-009 0 -3.6325e-017
Spine  1.81029 0.782658 8.22163
Spine1  14.5126 1.53113 -1.99105
HEad  -8.03814 -3.29972 -1.60122
LeftShoulder1  -0.0938639 3.79565 -25.893
LeftArm  -14.2803 9.06275 -39.8496
LeftForeArm  80.1413 -78.9417 -98.8586
LeftHand  -0.0333798 5.3861 -4.22525
RightShoulder  -0.430436 -4.78924 26.5648
RightArm  -15.2309 -9.30072 39.4496
RightForeArm  95.6465 75.2492 129.127
RightHand  -0.0515912 -3.12152 -1.81528
LeftUpLeg  -16.2303 2.65862 0.526642
LeftLeg  -3.21793 1.97507 -0.822756
LeftFoot  2.21972 0.936537 -7.97581
LeftToes  -4.29285e-010 1.49941e-010 2.15559e-012
176
root  -31.0441 39.129 1.18958 -156.721 87.8722 -153.28
RightUpLeg  14.7012 -8.05959 1.30294
RightLeg  8.81141 -0.91118 1.13717
RightFoot  -18.0614 -0.268467 -2.4795
RightToes  5.47152e-009 0 -3.6325e-017
Spine  1.56881 0.710965 7.92316
Spine1  14.8188 1.53391 -2.15504
HEad  -8.07858 -3.09321 -1.12622
LeftShoulder1  -0.0459313 3.649 -25.422
LeftArm  -13.7509 7.89153 -39.9457
LeftForeArm  77.4295 -78.968 -96.7618
LeftHand  -0.0336164 5.39865 -3.9835
RightShoulder  -0.423617 -4.77755 26.3285
RightArm  -15.3318 -9.50242 39.5364
RightForeArm  94.8579 75.3712 128.479
RightHand  -0.0595013 -3.30838 -2.36405
LeftUpLeg  -17.0425 2.44792 0.0118525
LeftLeg  1.63757 4.83306 -0.521758
LeftFoot  2.95665 0.623162 -5.05616
LeftToes  -4.29285e-010 1.49941e-010 2.15559e-012
177
root  -29.8541 38.8779 1.18411 -156.418 88.3243 -152.494
RightUpLeg  17.3096 -8.37608 0.545891
RightLeg  8.86329 -0.0762426 1.20134
RightFoot  -19.5182 -0.269099 -1.92116
RightToes  5.47152e-009 0 -3.6325e-017
Spine  1.00914 0.965014 6.76332
Spine1  15.4142 1.83198 -2.16588
HEad  -7.66747 -2.87543 -0.900154
LeftShoulder1  -0.0331393 3.60931 -25.2279
LeftArm  -13.2098 6.84758 -39.8276
LeftForeArm  74.3149 -79.0058 -93.9351
LeftHand  -0.0257175 5.20568 -3.91068
RightShoulder  -0.418937 -4.76055 26.3893
RightArm  -15.2787 -9.44631 39.104
RightForeArm  94.3785 75.552 127.63
RightHand  -0.0392238 -4.13515 -1.76642
LeftUpLeg  -17.6654 2.75892 -0.857024
LeftLeg  6.87277 5.14362 0.229296
LeftFoot  6.00695 -0.0900819 -0.0118243
LeftToes  -4.29285e-010 1.49941e-010 2.15559e-012
178
root  -28.6316 38.6969 1.15637 178.776 89.3004 -176.695
RightUpLeg  19.6386 -8.61505 -0.813542
RightLeg  9.72029 1.40261 0.898515
RightFoot  -20.4737 -0.174237 -0.45812
RightToes  5.47152e-009 0 -3.6325e-017
Spine  0.932282 1.27335 5.41319
Spine1  15.5076 2.36797 -2.79263
HEad  -6.87787 -2.39908 -0.600202
LeftShoulder1  -0.0677116 3.71965 -24.9652
LeftArm  -12.8081 6.41806 -39.6615
LeftForeArm  73.0624 -79.0097 -92.8645
LeftHand  -0.0319149 5.52622 -3.39687
RightShoulder  -0.457629 -4.86294 26.7894
RightArm  -14.8135 -9.31493 38.8741
RightForeArm  92.7366 75.6374 126.926
RightHand  -0.0340036 -4.90647 -2.06708
LeftUpLeg  -17.6495 3.34488 -1.80761
LeftLeg  10.5427 4.17756 0.637427
LeftFoot  11.0023 -1.10121 5.39414
LeftToes  -4.29285e-010 1.49941e-010 2.15559e-012
